<svg width="28" height="29" viewBox="0 0 28 29" fill="none" xmlns="http://www.w3.org/2000/svg">
<path d="M5.988 11.877C6.092 12.977 5.505 13.931 4.685 13.997C3.865 14.062 3.115 13.224 3.012 12.124C2.908 11.023 3.495 10.07 4.315 10.004C5.135 9.93101 5.885 10.768 5.988 11.877ZM10.686 23.996C11.506 23.931 12.092 22.978 11.988 21.877C11.885 20.768 11.134 19.931 10.315 20.005C9.495 20.07 8.908 21.023 9.012 22.124C9.115 23.224 9.867 24.062 10.686 23.996ZM23.686 10.004C24.506 10.069 25.092 11.022 24.988 12.123C24.885 13.232 24.134 14.069 23.314 13.996C22.494 13.93 21.908 12.977 22.012 11.876C22.115 10.776 22.866 9.93801 23.686 10.004ZM21.988 17.123C22.092 16.023 21.505 15.069 20.686 15.003C19.866 14.938 19.116 15.776 19.012 16.876C18.908 17.976 19.495 18.93 20.314 18.996C21.134 19.069 21.884 18.232 21.988 17.123ZM17.686 20.004C18.506 20.069 19.092 21.022 18.988 22.123C18.885 23.232 18.134 24.069 17.314 23.995C16.494 23.93 15.908 22.977 16.012 21.876C16.115 20.776 16.866 19.938 17.686 20.004Z" fill="#4C4D4F"/>
<path d="M11.883 0.450999L2.494 4.504C2.27467 4.60267 2.078 4.73267 1.904 4.894C1.36042 5.02744 0.87734 5.33943 0.532126 5.78001C0.186912 6.22059 -0.000465303 6.76428 8.67727e-07 7.324V21.494C7.03754e-05 22.0767 0.169859 22.6468 0.488625 23.1347C0.807391 23.6225 1.26133 24.0069 1.795 24.241L11.496 28.494C11.793 28.624 12.096 28.692 12.396 28.704C13.4293 29.0984 14.5717 29.0984 15.605 28.704C15.903 28.692 16.207 28.624 16.504 28.494L26.204 24.241C26.738 24.007 27.1923 23.6225 27.5112 23.1345C27.8302 22.6464 28 22.076 28 21.493V7.323C28.0003 6.78506 27.827 6.26137 27.506 5.82973C27.185 5.39808 26.7333 5.0815 26.218 4.927C26.0428 4.74917 25.8359 4.6057 25.608 4.504L16.118 0.450999C15.4516 0.153884 14.7301 0.000335693 14.0005 0.000335693C13.2709 0.000335693 12.5494 0.153884 11.883 0.450999ZM13 12.81V26.206C12.9998 26.2889 12.979 26.3705 12.9394 26.4433C12.8998 26.5162 12.8428 26.5781 12.7733 26.6234C12.7039 26.6687 12.6243 26.6961 12.5417 26.703C12.459 26.7099 12.376 26.6962 12.3 26.663L2.597 22.41C2.41915 22.3317 2.26798 22.2033 2.16195 22.0404C2.05593 21.8775 1.99965 21.6873 2 21.493V7.323C2.0001 7.23947 2.02112 7.1573 2.06115 7.08399C2.10118 7.01068 2.15893 6.94856 2.22914 6.90331C2.29935 6.85806 2.37978 6.83112 2.46308 6.82496C2.54638 6.81879 2.62989 6.83359 2.706 6.868L11.823 10.986C12.174 11.1445 12.4717 11.4009 12.6805 11.7244C12.8893 12.048 13.0002 12.4249 13 12.81ZM15 26.206V12.808C15 12.4231 15.111 12.0464 15.3198 11.723C15.5285 11.3996 15.8262 11.1434 16.177 10.985L25.294 6.867C25.3702 6.83255 25.4538 6.81776 25.5372 6.82398C25.6206 6.83019 25.701 6.85722 25.7713 6.90258C25.8415 6.94795 25.8993 7.0102 25.9392 7.08365C25.9792 7.15709 26.0001 7.23939 26 7.323V21.493C25.9999 21.6871 25.9433 21.877 25.8371 22.0394C25.7309 22.2019 25.5797 22.33 25.402 22.408L15.7 26.662C15.624 26.6954 15.5408 26.7093 15.458 26.7025C15.3753 26.6957 15.2955 26.6684 15.2259 26.623C15.1564 26.5777 15.0992 26.5157 15.0596 26.4427C15.02 26.3697 14.9991 26.288 14.999 26.205M14 5.5C12.343 5.5 11 5.052 11 4.5C11 3.948 12.343 3.5 14 3.5C15.657 3.5 17 3.948 17 4.5C17 5.052 15.657 5.5 14 5.5Z" fill="#4C4D4F"/>
</svg>
