<svg width="28" height="26" viewBox="0 0 28 26" fill="none" xmlns="http://www.w3.org/2000/svg">
<path d="M7.96666 26C5.94443 26 4.22221 25.2889 2.79999 23.8667C1.37777 22.4445 0.666656 20.7222 0.666656 18.7C0.666656 16.7889 1.30577 15.1387 2.58399 13.7493C3.86221 12.36 5.45643 11.588 7.36666 11.4333L1.99999 0.666672H11.3333L14 6.00001L16.6667 0.666672H26L20.6667 11.3667C22.5555 11.5444 24.1391 12.328 25.4173 13.7173C26.6955 15.1067 27.3342 16.7565 27.3333 18.6667C27.3333 20.7111 26.6222 22.4445 25.2 23.8667C23.7778 25.2889 22.0444 26 20 26C19.8 26 19.5947 25.9947 19.384 25.984C19.1733 25.9733 18.9675 25.9453 18.7667 25.9C19.9889 25.1 20.9444 24.0613 21.6333 22.784C22.3222 21.5067 22.6667 20.1342 22.6667 18.6667C22.6667 16.2444 21.8275 14.1947 20.1493 12.5173C18.4711 10.84 16.4213 10.0009 14 10C11.5787 9.99912 9.52888 10.8382 7.85066 12.5173C6.17243 14.1964 5.33332 16.2462 5.33332 18.6667C5.33332 20.1778 5.64443 21.6 6.26666 22.9333C6.88888 24.2667 7.86666 25.2556 9.19999 25.9C8.99999 25.9444 8.79466 25.9725 8.58399 25.984C8.37332 25.9956 8.16754 26.0009 7.96666 26ZM14 24.6667C12.3333 24.6667 10.9169 24.0836 9.75066 22.9173C8.58443 21.7511 8.00088 20.3342 7.99999 18.6667C7.9991 16.9991 8.58266 15.5827 9.75066 14.4173C10.9187 13.252 12.3351 12.6685 14 12.6667C15.6649 12.6649 17.0818 13.2484 18.2507 14.4173C19.4195 15.5862 20.0027 17.0027 20 18.6667C19.9973 20.3307 19.4142 21.7476 18.2507 22.9173C17.0871 24.0871 15.6702 24.6702 14 24.6667ZM11.5333 22.3333L14 20.4667L16.4667 22.3333L15.5333 19.3L18 17.5333H14.9667L14 14.3333L13.0333 17.5333H9.99999L12.4667 19.3L11.5333 22.3333Z" fill="#4C4D4F"/>
</svg>
