<svg width="20" height="29" viewBox="0 0 20 29" fill="none" xmlns="http://www.w3.org/2000/svg">
<path fill-rule="evenodd" clip-rule="evenodd" d="M10 0.666668C12.3787 0.666668 14.3373 0.876002 15.836 1.12933C17.3547 1.38533 18.1133 1.51333 18.748 2.29467C19.3827 3.076 19.348 3.92 19.2813 5.608C19.052 11.4067 17.8013 18.648 11 19.288V24H12.9067C13.2148 24.0002 13.5133 24.1071 13.7516 24.3025C13.9898 24.498 14.1529 24.7699 14.2133 25.072L14.4667 26.3333H18C18.2652 26.3333 18.5196 26.4387 18.7071 26.6262C18.8946 26.8138 19 27.0681 19 27.3333C19 27.5986 18.8946 27.8529 18.7071 28.0404C18.5196 28.228 18.2652 28.3333 18 28.3333H2C1.73479 28.3333 1.48043 28.228 1.2929 28.0404C1.10536 27.8529 1 27.5986 1 27.3333C1 27.0681 1.10536 26.8138 1.2929 26.6262C1.48043 26.4387 1.73479 26.3333 2 26.3333H5.53334L5.78667 25.072C5.84706 24.7699 6.01024 24.498 6.24845 24.3025C6.48667 24.1071 6.78521 24.0002 7.09334 24H9V19.288C2.2 18.648 0.949337 11.4053 0.720004 5.608C0.652004 3.92 0.618671 3.07467 1.25334 2.29467C1.88667 1.51333 2.64534 1.38533 4.164 1.12933C6.09312 0.81333 8.0452 0.658573 10 0.666668ZM11.2693 6.26534L11.1387 6.03067C10.632 5.12 10.3787 4.66667 10 4.66667C9.62134 4.66667 9.368 5.12 8.86134 6.03067L8.73067 6.26534C8.58667 6.524 8.51467 6.652 8.40267 6.73734C8.28934 6.82267 8.14934 6.85467 7.86934 6.91734L7.616 6.976C6.632 7.19867 6.14 7.30934 6.02267 7.68534C5.90534 8.06134 6.24134 8.45467 6.912 9.23867L7.08534 9.44134C7.276 9.664 7.372 9.77467 7.41467 9.91334C7.45734 10.052 7.44267 10.2 7.41467 10.4973L7.388 10.768C7.28667 11.8147 7.236 12.3387 7.54134 12.5707C7.848 12.8027 8.30934 12.5907 9.23067 12.1667L9.468 12.0573C9.73067 11.9373 9.86134 11.8773 10 11.8773C10.1387 11.8773 10.2693 11.9373 10.532 12.0573L10.7693 12.1667C11.6907 12.592 12.152 12.8027 12.4587 12.5707C12.7653 12.3387 12.7133 11.8147 12.612 10.768L12.5853 10.4973C12.5573 10.2 12.5427 10.052 12.5853 9.91334C12.628 9.77467 12.724 9.664 12.9147 9.44134L13.088 9.23867C13.7587 8.45467 14.0947 8.06267 13.9773 7.68534C13.86 7.30934 13.368 7.19867 12.384 6.976L12.1307 6.91734C11.8507 6.85467 11.7107 6.824 11.5973 6.73734C11.4853 6.652 11.4133 6.524 11.2693 6.26534Z" fill="#4C4D4F"/>
</svg>
