<svg width="32" height="32" viewBox="0 0 32 32" fill="none" xmlns="http://www.w3.org/2000/svg">
<path d="M7.988 13.877C8.092 14.977 7.505 15.931 6.685 15.997C5.865 16.062 5.115 15.224 5.012 14.124C4.908 13.023 5.495 12.07 6.315 12.004C7.135 11.931 7.885 12.768 7.988 13.877ZM12.686 25.996C13.506 25.931 14.092 24.978 13.988 23.877C13.885 22.768 13.134 21.931 12.315 22.005C11.495 22.07 10.908 23.023 11.012 24.124C11.115 25.224 11.867 26.062 12.686 25.996ZM25.686 12.004C26.506 12.069 27.092 13.022 26.988 14.123C26.885 15.232 26.134 16.069 25.314 15.996C24.494 15.93 23.908 14.977 24.012 13.876C24.115 12.776 24.866 11.938 25.686 12.004ZM23.988 19.123C24.092 18.023 23.505 17.069 22.686 17.003C21.866 16.938 21.116 17.776 21.012 18.876C20.908 19.976 21.495 20.93 22.314 20.996C23.134 21.069 23.884 20.232 23.988 19.123ZM19.686 22.004C20.506 22.069 21.092 23.022 20.988 24.123C20.885 25.232 20.134 26.069 19.314 25.995C18.494 25.93 17.908 24.977 18.012 23.876C18.115 22.776 18.866 21.938 19.686 22.004Z" fill="#E4E6EA"/>
<path d="M13.883 2.451L4.494 6.504C4.27467 6.60267 4.078 6.73267 3.904 6.894C3.36042 7.02744 2.87734 7.33943 2.53213 7.78001C2.18691 8.22059 1.99953 8.76428 2 9.324V23.494C2.00007 24.0767 2.16986 24.6468 2.48862 25.1347C2.80739 25.6225 3.26133 26.0069 3.795 26.241L13.496 30.494C13.793 30.624 14.096 30.692 14.396 30.704C15.4293 31.0984 16.5717 31.0984 17.605 30.704C17.903 30.692 18.207 30.624 18.504 30.494L28.204 26.241C28.738 26.007 29.1923 25.6225 29.5112 25.1345C29.8302 24.6464 30 24.076 30 23.493V9.323C30.0003 8.78506 29.827 8.26137 29.506 7.82973C29.185 7.39808 28.7333 7.0815 28.218 6.927C28.0428 6.74917 27.8359 6.6057 27.608 6.504L18.118 2.451C17.4516 2.15388 16.7301 2.00034 16.0005 2.00034C15.2709 2.00034 14.5494 2.15388 13.883 2.451ZM15 14.81V28.206C14.9998 28.2889 14.979 28.3705 14.9394 28.4433C14.8998 28.5162 14.8428 28.5781 14.7733 28.6234C14.7039 28.6687 14.6243 28.6961 14.5417 28.703C14.459 28.7099 14.376 28.6962 14.3 28.663L4.597 24.41C4.41915 24.3317 4.26798 24.2033 4.16195 24.0404C4.05593 23.8775 3.99965 23.6873 4 23.493V9.323C4.0001 9.23947 4.02112 9.1573 4.06115 9.08399C4.10118 9.01068 4.15893 8.94856 4.22914 8.90331C4.29935 8.85806 4.37978 8.83112 4.46308 8.82496C4.54638 8.81879 4.62989 8.83359 4.706 8.868L13.823 12.986C14.174 13.1445 14.4717 13.4009 14.6805 13.7244C14.8893 14.048 15.0002 14.4249 15 14.81ZM17 28.206V14.808C17 14.4231 17.111 14.0464 17.3198 13.723C17.5285 13.3996 17.8262 13.1434 18.177 12.985L27.294 8.867C27.3702 8.83255 27.4538 8.81776 27.5372 8.82398C27.6206 8.83019 27.701 8.85722 27.7713 8.90258C27.8415 8.94795 27.8993 9.0102 27.9392 9.08365C27.9792 9.15709 28.0001 9.23939 28 9.323V23.493C27.9999 23.6871 27.9433 23.877 27.8371 24.0394C27.7309 24.2019 27.5797 24.33 27.402 24.408L17.7 28.662C17.624 28.6954 17.5408 28.7093 17.458 28.7025C17.3753 28.6957 17.2955 28.6684 17.2259 28.623C17.1564 28.5777 17.0992 28.5157 17.0596 28.4427C17.02 28.3697 16.9991 28.288 16.999 28.205M16 7.5C14.343 7.5 13 7.052 13 6.5C13 5.948 14.343 5.5 16 5.5C17.657 5.5 19 5.948 19 6.5C19 7.052 17.657 7.5 16 7.5Z" fill="#E4E6EA"/>
</svg>
