<svg width="32" height="32" viewBox="0 0 32 32" fill="none" xmlns="http://www.w3.org/2000/svg">
<path d="M29.3333 10.8827V10.98C29.3333 12.1267 29.3333 12.7013 29.0573 13.1707C28.7813 13.64 28.2786 13.9187 27.276 14.4773L26.2186 15.064C26.9466 12.6 27.1906 9.952 27.28 7.688L27.2933 7.39334L27.296 7.32401C28.164 7.62534 28.652 7.85067 28.956 8.27201C29.3333 8.79601 29.3333 9.492 29.3333 10.8827ZM2.66663 10.8827V10.98C2.66663 12.1267 2.66663 12.7013 2.94263 13.1707C3.21863 13.64 3.72129 13.9187 4.72396 14.4773L5.78263 15.064C5.05329 12.6 4.80929 9.952 4.71996 7.688L4.70663 7.39334L4.70529 7.32401C3.83596 7.62534 3.34796 7.85067 3.04396 8.27201C2.66663 8.79601 2.66663 9.49334 2.66663 10.8827Z" fill="#E4E6EA"/>
<path fill-rule="evenodd" clip-rule="evenodd" d="M16 2.66667C18.3787 2.66667 20.3373 2.876 21.836 3.12933C23.3547 3.38533 24.1133 3.51333 24.748 4.29467C25.3827 5.076 25.348 5.92 25.2813 7.608C25.052 13.4067 23.8013 20.648 17 21.288V26H18.9067C19.2148 26.0002 19.5133 26.1071 19.7516 26.3025C19.9898 26.498 20.1529 26.7699 20.2133 27.072L20.4667 28.3333H24C24.2652 28.3333 24.5196 28.4387 24.7071 28.6262C24.8946 28.8138 25 29.0681 25 29.3333C25 29.5986 24.8946 29.8529 24.7071 30.0404C24.5196 30.228 24.2652 30.3333 24 30.3333H8C7.73479 30.3333 7.48043 30.228 7.2929 30.0404C7.10536 29.8529 7 29.5986 7 29.3333C7 29.0681 7.10536 28.8138 7.2929 28.6262C7.48043 28.4387 7.73479 28.3333 8 28.3333H11.5333L11.7867 27.072C11.8471 26.7699 12.0102 26.498 12.2485 26.3025C12.4867 26.1071 12.7852 26.0002 13.0933 26H15V21.288C8.2 20.648 6.94934 13.4053 6.72 7.608C6.652 5.92 6.61867 5.07467 7.25334 4.29467C7.88667 3.51333 8.64534 3.38533 10.164 3.12933C12.0931 2.81333 14.0452 2.65857 16 2.66667ZM17.2693 8.26534L17.1387 8.03067C16.632 7.12 16.3787 6.66667 16 6.66667C15.6213 6.66667 15.368 7.12 14.8613 8.03067L14.7307 8.26534C14.5867 8.524 14.5147 8.652 14.4027 8.73734C14.2893 8.82267 14.1493 8.85467 13.8693 8.91734L13.616 8.976C12.632 9.19867 12.14 9.30934 12.0227 9.68534C11.9053 10.0613 12.2413 10.4547 12.912 11.2387L13.0853 11.4413C13.276 11.664 13.372 11.7747 13.4147 11.9133C13.4573 12.052 13.4427 12.2 13.4147 12.4973L13.388 12.768C13.2867 13.8147 13.236 14.3387 13.5413 14.5707C13.848 14.8027 14.3093 14.5907 15.2307 14.1667L15.468 14.0573C15.7307 13.9373 15.8613 13.8773 16 13.8773C16.1387 13.8773 16.2693 13.9373 16.532 14.0573L16.7693 14.1667C17.6907 14.592 18.152 14.8027 18.4587 14.5707C18.7653 14.3387 18.7133 13.8147 18.612 12.768L18.5853 12.4973C18.5573 12.2 18.5427 12.052 18.5853 11.9133C18.628 11.7747 18.724 11.664 18.9147 11.4413L19.088 11.2387C19.7587 10.4547 20.0947 10.0627 19.9773 9.68534C19.86 9.30934 19.368 9.19867 18.384 8.976L18.1307 8.91734C17.8507 8.85467 17.7107 8.824 17.5973 8.73734C17.4853 8.652 17.4133 8.524 17.2693 8.26534Z" fill="#E4E6EA"/>
</svg>
