<svg width="25" height="28" viewBox="0 0 25 28" fill="none" xmlns="http://www.w3.org/2000/svg">
<path d="M18.6667 0.667999C19.4268 0.667906 20.1587 0.956393 20.7143 1.47516C21.27 1.99392 21.608 2.70428 21.66 3.46267L21.6667 3.66667V17.1707C21.5058 17.2773 21.3542 17.4018 21.212 17.544L16.6667 22.088L15.456 20.8747C14.9238 20.3407 14.2093 20.0278 13.456 19.9987H16.6667C16.9319 19.9987 17.1862 19.8933 17.3738 19.7058C17.5613 19.5182 17.6667 19.2639 17.6667 18.9987C17.6667 18.7334 17.5613 18.4791 17.3738 18.2916C17.1862 18.104 16.9319 17.9987 16.6667 17.9987H9.99468C9.72946 17.9987 9.47511 18.104 9.28757 18.2916C9.10003 18.4791 8.99468 18.7334 8.99468 18.9987C8.99468 19.2639 9.10003 19.5182 9.28757 19.7058C9.47511 19.8933 9.72946 19.9987 9.99468 19.9987H13.212C12.6295 20.0223 12.0665 20.2151 11.5919 20.5535C11.1172 20.892 10.7514 21.3614 10.5392 21.9044C10.3271 22.4474 10.2777 23.0405 10.3972 23.611C10.5167 24.1816 10.7998 24.7051 11.212 25.1173L13.424 27.3307H3.33334C2.57317 27.3308 1.84132 27.0423 1.28567 26.5235C0.73003 26.0047 0.39204 25.2944 0.34001 24.536L0.333344 24.3333V3.668C0.33325 2.90783 0.621737 2.17597 1.1405 1.62033C1.65927 1.06468 2.36962 0.726695 3.12801 0.674666L3.33334 0.667999H18.6667ZM7.00001 8.33467C7.00001 7.98104 6.85953 7.64191 6.60949 7.39186C6.35944 7.14181 6.0203 7.00133 5.66668 7.00133C5.31306 7.00133 4.97392 7.14181 4.72387 7.39186C4.47382 7.64191 4.33334 7.98104 4.33334 8.33467C4.33334 8.68829 4.47382 9.02743 4.72387 9.27748C4.97392 9.52752 5.31306 9.668 5.66668 9.668C6.0203 9.668 6.35944 9.52752 6.60949 9.27748C6.85953 9.02743 7.00001 8.68829 7.00001 8.33467ZM9.99468 7.33333C9.72946 7.33333 9.47511 7.43869 9.28757 7.62623C9.10003 7.81376 8.99468 8.06812 8.99468 8.33333C8.99468 8.59855 9.10003 8.8529 9.28757 9.04044C9.47511 9.22798 9.72946 9.33333 9.99468 9.33333H16.6667C16.9319 9.33333 17.1862 9.22798 17.3738 9.04044C17.5613 8.8529 17.6667 8.59855 17.6667 8.33333C17.6667 8.06812 17.5613 7.81376 17.3738 7.62623C17.1862 7.43869 16.9319 7.33333 16.6667 7.33333H9.99468ZM8.99468 13.6667C8.99468 14.2187 9.44268 14.6667 9.99468 14.6667H16.6667C16.798 14.6667 16.928 14.6408 17.0494 14.5905C17.1707 14.5403 17.2809 14.4666 17.3738 14.3738C17.4666 14.2809 17.5403 14.1707 17.5906 14.0494C17.6408 13.928 17.6667 13.798 17.6667 13.6667C17.6667 13.5353 17.6408 13.4053 17.5906 13.284C17.5403 13.1627 17.4666 13.0524 17.3738 12.9596C17.2809 12.8667 17.1707 12.793 17.0494 12.7428C16.928 12.6925 16.798 12.6667 16.6667 12.6667H9.99468C9.72946 12.6667 9.47511 12.772 9.28757 12.9596C9.10003 13.1471 8.99468 13.4015 8.99468 13.6667ZM7.00001 13.6667C7.00001 13.313 6.85953 12.9739 6.60949 12.7239C6.35944 12.4738 6.0203 12.3333 5.66668 12.3333C5.31306 12.3333 4.97392 12.4738 4.72387 12.7239C4.47382 12.9739 4.33334 13.313 4.33334 13.6667C4.33334 14.0203 4.47382 14.3594 4.72387 14.6095C4.97392 14.8595 5.31306 15 5.66668 15C6.0203 15 6.35944 14.8595 6.60949 14.6095C6.85953 14.3594 7.00001 14.0203 7.00001 13.6667ZM7.00001 18.9973C7.00001 18.6437 6.85953 18.3046 6.60949 18.0545C6.35944 17.8045 6.0203 17.664 5.66668 17.664C5.31306 17.664 4.97392 17.8045 4.72387 18.0545C4.47382 18.3046 4.33334 18.6437 4.33334 18.9973C4.33334 19.351 4.47382 19.6901 4.72387 19.9401C4.97392 20.1902 5.31306 20.3307 5.66668 20.3307C6.0203 20.3307 6.35944 20.1902 6.60949 19.9401C6.85953 19.6901 7.00001 19.351 7.00001 18.9973ZM16.6667 24.9187L22.6267 18.9587C22.719 18.8632 22.8293 18.7871 22.9514 18.7347C23.0734 18.6824 23.2046 18.6548 23.3374 18.6538C23.4702 18.6527 23.6019 18.678 23.7247 18.7284C23.8476 18.7787 23.9592 18.853 24.0531 18.9469C24.1469 19.0409 24.2211 19.1526 24.2713 19.2755C24.3216 19.3984 24.3468 19.5301 24.3456 19.6629C24.3444 19.7957 24.3167 19.9269 24.2643 20.0488C24.2118 20.1708 24.1356 20.2811 24.04 20.3733L17.3733 27.04L17.3053 27.1027C17.1135 27.262 16.869 27.344 16.6199 27.3324C16.3707 27.3208 16.1349 27.2165 15.9587 27.04L12.6253 23.7053C12.4379 23.5176 12.3328 23.263 12.333 22.9977C12.3333 22.7324 12.4389 22.4781 12.6267 22.2907C12.8145 22.1032 13.069 21.9981 13.3343 21.9983C13.5996 21.9986 13.8539 22.1042 14.0413 22.292L16.6667 24.9187Z" fill="#4C4D4F"/>
</svg>
